<?xml version="1.0"?>
<svg width="625" height="250" xmlns="http://www.w3.org/2000/svg" xmlns:svg="http://www.w3.org/2000/svg">
 <!-- Created with SVG-edit - http://svg-edit.googlecode.com/ -->
 <!--base color: rgb(2, 97, 100) or #026164 -->
 <g>
  <title>Layer 1</title>
  <!-- ROW 1 -->
  <rect stroke="#000000" height="20" width="20" y="0" x="5" stroke-width="0" fill="#026164"/>
  <rect stroke="#000000" height="20" width="20" y="0" x="30" stroke-width="0" fill="#026164"/>
  <rect stroke="#000000" height="20" width="20" y="0" x="55" stroke-width="0" fill="#026164"/>
  <rect stroke="#000000" height="20" width="20" y="0" x="80" stroke-width="0" fill="#026164"/>
  <rect stroke="#000000" height="20" width="20" y="0" x="105" stroke-width="0" fill="#026164"/>
  <rect stroke="#000000" height="20" width="20" y="0" x="130" stroke-width="0" fill="#026164"/>
  <rect stroke="#000000" height="20" width="20" y="0" x="155" stroke-width="0" fill="#026164"/>
  <rect stroke="#000000" height="20" width="20" y="0" x="180" stroke-width="0" fill="#026164"/>
  <rect stroke="#000000" height="20" width="20" y="0" x="205" stroke-width="0" fill="#026164"/>
  <rect stroke="#000000" height="20" width="20" y="0" x="230" stroke-width="0" fill="#026164"/>
  <rect stroke="#000000" height="20" width="20" y="0" x="255" stroke-width="0" fill="#026164"/>
  <rect stroke="#000000" height="20" width="20" y="0" x="280" stroke-width="0" fill="#026164"/>
  <rect stroke="#000000" height="20" width="20" y="0" x="305" stroke-width="0" fill="#026164"/>
  <rect stroke="#000000" height="20" width="20" y="0" x="330" stroke-width="0" fill="#026164"/>
  <rect stroke="#000000" height="20" width="20" y="0" x="355" stroke-width="0" fill="#026164"/>
  <rect stroke="#000000" height="20" width="20" y="0" x="380" stroke-width="0" fill="#026164"/>
  <rect stroke="#000000" height="20" width="20" y="0" x="405" stroke-width="0" fill="#026164"/>
  <rect stroke="#000000" height="20" width="20" y="0" x="430" stroke-width="0" fill="#026164"/>
  <rect stroke="#000000" height="20" width="20" y="0" x="455" stroke-width="0" fill="#026164"/>
  <rect stroke="#000000" height="20" width="20" y="0" x="480" stroke-width="0" fill="#026164"/>
  <rect stroke="#000000" height="20" width="20" y="0" x="505" stroke-width="0" fill="#026164"/>
  <rect stroke="#000000" height="20" width="20" y="0" x="530" stroke-width="0" fill="#026164"/>
  <rect stroke="#000000" height="20" width="20" y="0" x="555" stroke-width="0" fill="#026164"/>
  <rect stroke="#000000" height="20" width="20" y="0" x="580" stroke-width="0" fill="#026164"/>
  <rect stroke="#000000" height="20" width="20" y="0" x="605" stroke-width="0" fill="#026164"/>

  <!-- ROW 2 -->
  <rect stroke="#000000" height="20" width="20" y="25" x="5" stroke-width="0" fill="#026164"/>
  <rect stroke="#000000" height="20" width="20" y="25" x="30" stroke-width="0" fill="#026164"/>
  <rect stroke="#000000" height="20" width="20" y="25" x="55" stroke-width="0" fill="#026164"/>
  <rect stroke="#000000" height="20" width="20" y="25" x="80" stroke-width="0" fill="#026164"/>
  <rect stroke="#000000" height="20" width="20" y="25" x="105" stroke-width="0" fill="#026164"/>
  <rect stroke="#000000" height="20" width="20" y="25" x="130" stroke-width="0" fill="#026164"/>
  <rect stroke="#000000" height="20" width="20" y="25" x="155" stroke-width="0" fill="#026164"/>
  <rect stroke="#000000" height="20" width="20" y="25" x="180" stroke-width="0" fill="#026164"/>
  <rect stroke="#000000" height="20" width="20" y="25" x="205" stroke-width="0" fill="#026164"/>
  <rect stroke="#000000" height="20" width="20" y="25" x="230" stroke-width="0" fill="#026164"/>
  <rect stroke="#000000" height="20" width="20" y="25" x="255" stroke-width="0" fill="#026164"/>
  <rect stroke="#000000" height="20" width="20" y="25" x="280" stroke-width="0" fill="#026164"/>
  <rect stroke="#000000" height="20" width="20" y="25" x="305" stroke-width="0" fill="#026164"/>
  <rect stroke="#000000" height="20" width="20" y="25" x="330" stroke-width="0" fill="#026164"/>
  <rect stroke="#000000" height="20" width="20" y="25" x="355" stroke-width="0" fill="#026164"/>
  <rect stroke="#000000" height="20" width="20" y="25" x="380" stroke-width="0" fill="#026164"/>
  <rect stroke="#000000" height="20" width="20" y="25" x="405" stroke-width="0" fill="#026164"/>
  <rect stroke="#000000" height="20" width="20" y="25" x="430" stroke-width="0" fill="#026164"/>
  <rect stroke="#000000" height="20" width="20" y="25" x="455" stroke-width="0" fill="#026164"/>
  <rect stroke="#000000" height="20" width="20" y="25" x="480" stroke-width="0" fill="#026164"/>
  <rect stroke="#000000" height="20" width="20" y="25" x="505" stroke-width="0" fill="#026164"/>
  <rect stroke="#000000" height="20" width="20" y="25" x="530" stroke-width="0" fill="#026164"/>
  <rect stroke="#000000" height="20" width="20" y="25" x="555" stroke-width="0" fill="#026164"/>
  <rect stroke="#000000" height="20" width="20" y="25" x="580" stroke-width="0" fill="#026164"/>
  <rect stroke="#000000" height="20" width="20" y="25" x="605" stroke-width="0" fill="#026164"/>

  <!-- ROW 3 -->
  <rect stroke="#000000" height="20" width="20" y="50" x="5" stroke-width="0" fill="#026164"/>
  <rect stroke="#000000" height="20" width="20" y="50" x="30" stroke-width="0" fill="#026164"/>
  <rect stroke="#000000" height="20" width="20" y="50" x="55" stroke-width="0" fill="#026164"/>
  <rect stroke="#000000" height="20" width="20" y="50" x="80" stroke-width="0" fill="#026164"/>
  <rect stroke="#000000" height="20" width="20" y="50" x="105" stroke-width="0" fill="#026164"/>
  <rect stroke="#000000" height="20" width="20" y="50" x="130" stroke-width="0" fill="#026164"/>
  <rect stroke="#000000" height="20" width="20" y="50" x="155" stroke-width="0" fill="#026164"/>
  <rect stroke="#000000" height="20" width="20" y="50" x="180" stroke-width="0" fill="#026164"/>
  <rect stroke="#000000" height="20" width="20" y="50" x="205" stroke-width="0" fill="#026164"/>
  <rect stroke="#000000" height="20" width="20" y="50" x="230" stroke-width="0" fill="#026164"/>
  <rect stroke="#000000" height="20" width="20" y="50" x="255" stroke-width="0" fill="#026164"/>
  <rect stroke="#000000" height="20" width="20" y="50" x="280" stroke-width="0" fill="#026164"/>
  <rect stroke="#000000" height="20" width="20" y="50" x="305" stroke-width="0" fill="#026164"/>
  <rect stroke="#000000" height="20" width="20" y="50" x="330" stroke-width="0" fill="#026164"/>
  <rect stroke="#000000" height="20" width="20" y="50" x="355" stroke-width="0" fill="#026164"/>
  <rect stroke="#000000" height="20" width="20" y="50" x="380" stroke-width="0" fill="#026164"/>
  <rect stroke="#000000" height="20" width="20" y="50" x="405" stroke-width="0" fill="#026164"/>
  <rect stroke="#000000" height="20" width="20" y="50" x="430" stroke-width="0" fill="#026164"/>
  <rect stroke="#000000" height="20" width="20" y="50" x="455" stroke-width="0" fill="#026164"/>
  <rect stroke="#000000" height="20" width="20" y="50" x="480" stroke-width="0" fill="#026164"/>
  <rect stroke="#000000" height="20" width="20" y="50" x="505" stroke-width="0" fill="#026164"/>
  <rect stroke="#000000" height="20" width="20" y="50" x="530" stroke-width="0" fill="#026164"/>
  <rect stroke="#000000" height="20" width="20" y="50" x="555" stroke-width="0" fill="#026164"/>
  <rect stroke="#000000" height="20" width="20" y="50" x="580" stroke-width="0" fill="#026164"/>
  <rect stroke="#000000" height="20" width="20" y="50" x="605" stroke-width="0" fill="#026164"/>

  <!-- ROW 4 -->
  <rect stroke="#000000" height="20" width="20" y="75" x="5" stroke-width="0" fill="#026164"/>
  <rect stroke="#000000" height="20" width="20" y="75" x="30" stroke-width="0" fill="#026164"/>
  <rect stroke="#000000" height="20" width="20" y="75" x="55" stroke-width="0" fill="#026164"/>
  <rect stroke="#000000" height="20" width="20" y="75" x="80" stroke-width="0" fill="#026164"/>
  <rect stroke="#000000" height="20" width="20" y="75" x="105" stroke-width="0" fill="#026164"/>
  <rect stroke="#000000" height="20" width="20" y="75" x="130" stroke-width="0" fill="#026164"/>
  <rect stroke="#000000" height="20" width="20" y="75" x="155" stroke-width="0" fill="#026164"/>
  <rect stroke="#000000" height="20" width="20" y="75" x="180" stroke-width="0" fill="#026164"/>
  <rect stroke="#000000" height="20" width="20" y="75" x="205" stroke-width="0" fill="#026164"/>
  <rect stroke="#000000" height="20" width="20" y="75" x="230" stroke-width="0" fill="#026164"/>
  <rect stroke="#000000" height="20" width="20" y="75" x="255" stroke-width="0" fill="#026164"/>
  <rect stroke="#000000" height="20" width="20" y="75" x="280" stroke-width="0" fill="#026164"/>
  <rect stroke="#000000" height="20" width="20" y="75" x="305" stroke-width="0" fill="#026164"/>
  <rect stroke="#000000" height="20" width="20" y="75" x="330" stroke-width="0" fill="#026164"/>
  <rect stroke="#000000" height="20" width="20" y="75" x="355" stroke-width="0" fill="#026164"/>
  <rect stroke="#000000" height="20" width="20" y="75" x="380" stroke-width="0" fill="#026164"/>
  <rect stroke="#000000" height="20" width="20" y="75" x="405" stroke-width="0" fill="#026164"/>
  <rect stroke="#000000" height="20" width="20" y="75" x="430" stroke-width="0" fill="#026164"/>
  <rect stroke="#000000" height="20" width="20" y="75" x="455" stroke-width="0" fill="#026164"/>
  <rect stroke="#000000" height="20" width="20" y="75" x="480" stroke-width="0" fill="#026164"/>
  <rect stroke="#000000" height="20" width="20" y="75" x="505" stroke-width="0" fill="#026164"/>
  <rect stroke="#000000" height="20" width="20" y="75" x="530" stroke-width="0" fill="#026164"/>
  <rect stroke="#000000" height="20" width="20" y="75" x="555" stroke-width="0" fill="#026164"/>
  <rect stroke="#000000" height="20" width="20" y="75" x="580" stroke-width="0" fill="#026164"/>
  <rect stroke="#000000" height="20" width="20" y="75" x="605" stroke-width="0" fill="#026164"/>

  <!-- ROW 5 -->
  <rect stroke="#000000" height="20" width="20" y="100" x="5" stroke-width="0" fill="#026164"/>
  <rect stroke="#000000" height="20" width="20" y="100" x="30" stroke-width="0" fill="#026164"/>
  <rect stroke="#000000" height="20" width="20" y="100" x="55" stroke-width="0" fill="#026164"/>
  <rect stroke="#000000" height="20" width="20" y="100" x="80" stroke-width="0" fill="#026164"/>
  <rect stroke="#000000" height="20" width="20" y="100" x="105" stroke-width="0" fill="#026164"/>
  <rect stroke="#000000" height="20" width="20" y="100" x="130" stroke-width="0" fill="#026164"/>
  <rect stroke="#000000" height="20" width="20" y="100" x="155" stroke-width="0" fill="#026164"/>
  <rect stroke="#000000" height="20" width="20" y="100" x="180" stroke-width="0" fill="#026164"/>
  <rect stroke="#000000" height="20" width="20" y="100" x="205" stroke-width="0" fill="#026164"/>
  <rect stroke="#000000" height="20" width="20" y="100" x="230" stroke-width="0" fill="#026164"/>
  <rect stroke="#000000" height="20" width="20" y="100" x="255" stroke-width="0" fill="#026164"/>
  <rect stroke="#000000" height="20" width="20" y="100" x="280" stroke-width="0" fill="#026164"/>
  <rect stroke="#000000" height="20" width="20" y="100" x="305" stroke-width="0" fill="#026164"/>
  <rect stroke="#000000" height="20" width="20" y="100" x="330" stroke-width="0" fill="#026164"/>
  <rect stroke="#000000" height="20" width="20" y="100" x="355" stroke-width="0" fill="#026164"/>
  <rect stroke="#000000" height="20" width="20" y="100" x="380" stroke-width="0" fill="#026164"/>
  <rect stroke="#000000" height="20" width="20" y="100" x="405" stroke-width="0" fill="#026164"/>
  <rect stroke="#000000" height="20" width="20" y="100" x="430" stroke-width="0" fill="#026164"/>
  <rect stroke="#000000" height="20" width="20" y="100" x="455" stroke-width="0" fill="#026164"/>
  <rect stroke="#000000" height="20" width="20" y="100" x="480" stroke-width="0" fill="#026164"/>
  <rect stroke="#000000" height="20" width="20" y="100" x="505" stroke-width="0" fill="#026164"/>
  <rect stroke="#000000" height="20" width="20" y="100" x="530" stroke-width="0" fill="#026164"/>
  <rect stroke="#000000" height="20" width="20" y="100" x="555" stroke-width="0" fill="#026164"/>
  <rect stroke="#000000" height="20" width="20" y="100" x="580" stroke-width="0" fill="#026164"/>
  <rect stroke="#000000" height="20" width="20" y="100" x="605" stroke-width="0" fill="#026164"/>

  <!-- ROW 6 -->
  <rect stroke="#000000" height="20" width="20" y="125" x="5" stroke-width="0" fill="#026164"/>
  <rect stroke="#000000" height="20" width="20" y="125" x="30" stroke-width="0" fill="#026164"/>
  <rect stroke="#000000" height="20" width="20" y="125" x="55" stroke-width="0" fill="#026164"/>
  <rect stroke="#000000" height="20" width="20" y="125" x="80" stroke-width="0" fill="#026164"/>
  <rect stroke="#000000" height="20" width="20" y="125" x="105" stroke-width="0" fill="#026164"/>
  <rect stroke="#000000" height="20" width="20" y="125" x="130" stroke-width="0" fill="#026164"/>
  <rect stroke="#000000" height="20" width="20" y="125" x="155" stroke-width="0" fill="#026164"/>
  <rect stroke="#000000" height="20" width="20" y="125" x="180" stroke-width="0" fill="#026164"/>
  <rect stroke="#000000" height="20" width="20" y="125" x="205" stroke-width="0" fill="#026164"/>
  <rect stroke="#000000" height="20" width="20" y="125" x="230" stroke-width="0" fill="#026164"/>
  <rect stroke="#000000" height="20" width="20" y="125" x="255" stroke-width="0" fill="#026164"/>
  <rect stroke="#000000" height="20" width="20" y="125" x="280" stroke-width="0" fill="#026164"/>
  <rect stroke="#000000" height="20" width="20" y="125" x="305" stroke-width="0" fill="#026164"/>
  <rect stroke="#000000" height="20" width="20" y="125" x="330" stroke-width="0" fill="#026164"/>
  <rect stroke="#000000" height="20" width="20" y="125" x="355" stroke-width="0" fill="#026164"/>
  <rect stroke="#000000" height="20" width="20" y="125" x="380" stroke-width="0" fill="#026164"/>
  <rect stroke="#000000" height="20" width="20" y="125" x="405" stroke-width="0" fill="#026164"/>
  <rect stroke="#000000" height="20" width="20" y="125" x="430" stroke-width="0" fill="#026164"/>
  <rect stroke="#000000" height="20" width="20" y="125" x="455" stroke-width="0" fill="#026164"/>
  <rect stroke="#000000" height="20" width="20" y="125" x="480" stroke-width="0" fill="#026164"/>
  <rect stroke="#000000" height="20" width="20" y="125" x="505" stroke-width="0" fill="#026164"/>
  <rect stroke="#000000" height="20" width="20" y="125" x="530" stroke-width="0" fill="#026164"/>
  <rect stroke="#000000" height="20" width="20" y="125" x="555" stroke-width="0" fill="#026164"/>
  <rect stroke="#000000" height="20" width="20" y="125" x="580" stroke-width="0" fill="#026164"/>
  <rect stroke="#000000" height="20" width="20" y="125" x="605" stroke-width="0" fill="#026164"/>

  <!-- ROW 7 -->
  <rect stroke="#000000" height="20" width="20" y="150" x="5" stroke-width="0" fill="#026164"/>
  <rect stroke="#000000" height="20" width="20" y="150" x="30" stroke-width="0" fill="#026164"/>
  <rect stroke="#000000" height="20" width="20" y="150" x="55" stroke-width="0" fill="#026164"/>
  <rect stroke="#000000" height="20" width="20" y="150" x="80" stroke-width="0" fill="#026164"/>
  <rect stroke="#000000" height="20" width="20" y="150" x="105" stroke-width="0" fill="#026164"/>
  <rect stroke="#000000" height="20" width="20" y="150" x="130" stroke-width="0" fill="#026164"/>
  <rect stroke="#000000" height="20" width="20" y="150" x="155" stroke-width="0" fill="#026164"/>
  <rect stroke="#000000" height="20" width="20" y="150" x="180" stroke-width="0" fill="#026164"/>
  <rect stroke="#000000" height="20" width="20" y="150" x="205" stroke-width="0" fill="#026164"/>
  <rect stroke="#000000" height="20" width="20" y="150" x="230" stroke-width="0" fill="#026164"/>
  <rect stroke="#000000" height="20" width="20" y="150" x="255" stroke-width="0" fill="#026164"/>
  <rect stroke="#000000" height="20" width="20" y="150" x="280" stroke-width="0" fill="#026164"/>
  <rect stroke="#000000" height="20" width="20" y="150" x="305" stroke-width="0" fill="#026164"/>
  <rect stroke="#000000" height="20" width="20" y="150" x="330" stroke-width="0" fill="#026164"/>
  <rect stroke="#000000" height="20" width="20" y="150" x="355" stroke-width="0" fill="#026164"/>
  <rect stroke="#000000" height="20" width="20" y="150" x="380" stroke-width="0" fill="#026164"/>
  <rect stroke="#000000" height="20" width="20" y="150" x="405" stroke-width="0" fill="#026164"/>
  <rect stroke="#000000" height="20" width="20" y="150" x="430" stroke-width="0" fill="#026164"/>
  <rect stroke="#000000" height="20" width="20" y="150" x="455" stroke-width="0" fill="#026164"/>
  <rect stroke="#000000" height="20" width="20" y="150" x="480" stroke-width="0" fill="#026164"/>
  <rect stroke="#000000" height="20" width="20" y="150" x="505" stroke-width="0" fill="#026164"/>
  <rect stroke="#000000" height="20" width="20" y="150" x="530" stroke-width="0" fill="#026164"/>
  <rect stroke="#000000" height="20" width="20" y="150" x="555" stroke-width="0" fill="#026164"/>
  <rect stroke="#000000" height="20" width="20" y="150" x="580" stroke-width="0" fill="#026164"/>
  <rect stroke="#000000" height="20" width="20" y="150" x="605" stroke-width="0" fill="#026164"/>

  <!-- ROW 8 -->
  <rect stroke="#000000" height="20" width="20" y="175" x="5" stroke-width="0" fill="#026164"/>
  <rect stroke="#000000" height="20" width="20" y="175" x="30" stroke-width="0" fill="#026164"/>
  <rect stroke="#000000" height="20" width="20" y="175" x="55" stroke-width="0" fill="#026164"/>
  <rect stroke="#000000" height="20" width="20" y="175" x="80" stroke-width="0" fill="#026164"/>
  <rect stroke="#000000" height="20" width="20" y="175" x="105" stroke-width="0" fill="#026164"/>
  <rect stroke="#000000" height="20" width="20" y="175" x="130" stroke-width="0" fill="#026164"/>
  <rect stroke="#000000" height="20" width="20" y="175" x="155" stroke-width="0" fill="#026164"/>
  <rect stroke="#000000" height="20" width="20" y="175" x="180" stroke-width="0" fill="#026164"/>
  <rect stroke="#000000" height="20" width="20" y="175" x="205" stroke-width="0" fill="#026164"/>
  <rect stroke="#000000" height="20" width="20" y="175" x="230" stroke-width="0" fill="#026164"/>
  <rect stroke="#000000" height="20" width="20" y="175" x="255" stroke-width="0" fill="#026164"/>
  <rect stroke="#000000" height="20" width="20" y="175" x="280" stroke-width="0" fill="#026164"/>
  <rect stroke="#000000" height="20" width="20" y="175" x="305" stroke-width="0" fill="#026164"/>
  <rect stroke="#000000" height="20" width="20" y="175" x="330" stroke-width="0" fill="#026164"/>
  <rect stroke="#000000" height="20" width="20" y="175" x="355" stroke-width="0" fill="#026164"/>
  <rect stroke="#000000" height="20" width="20" y="175" x="380" stroke-width="0" fill="#026164"/>
  <rect stroke="#000000" height="20" width="20" y="175" x="405" stroke-width="0" fill="#026164"/>
  <rect stroke="#000000" height="20" width="20" y="175" x="430" stroke-width="0" fill="#026164"/>
  <rect stroke="#000000" height="20" width="20" y="175" x="455" stroke-width="0" fill="#026164"/>
  <rect stroke="#000000" height="20" width="20" y="175" x="480" stroke-width="0" fill="#026164"/>
  <rect stroke="#000000" height="20" width="20" y="175" x="505" stroke-width="0" fill="#026164"/>
  <rect stroke="#000000" height="20" width="20" y="175" x="530" stroke-width="0" fill="#026164"/>
  <rect stroke="#000000" height="20" width="20" y="175" x="555" stroke-width="0" fill="#026164"/>
  <rect stroke="#000000" height="20" width="20" y="175" x="580" stroke-width="0" fill="#026164"/>
  <rect stroke="#000000" height="20" width="20" y="175" x="605" stroke-width="0" fill="#026164"/>

  <!-- ROW 9 -->
  <rect stroke="#000000" height="20" width="20" y="200" x="5" stroke-width="0" fill="#026164"/>
  <rect stroke="#000000" height="20" width="20" y="200" x="30" stroke-width="0" fill="#026164"/>
  <rect stroke="#000000" height="20" width="20" y="200" x="55" stroke-width="0" fill="#026164"/>
  <rect stroke="#000000" height="20" width="20" y="200" x="80" stroke-width="0" fill="#026164"/>
  <rect stroke="#000000" height="20" width="20" y="200" x="105" stroke-width="0" fill="#026164"/>
  <rect stroke="#000000" height="20" width="20" y="200" x="130" stroke-width="0" fill="#026164"/>
  <rect stroke="#000000" height="20" width="20" y="200" x="155" stroke-width="0" fill="#026164"/>
  <rect stroke="#000000" height="20" width="20" y="200" x="180" stroke-width="0" fill="#026164"/>
  <rect stroke="#000000" height="20" width="20" y="200" x="205" stroke-width="0" fill="#026164"/>
  <rect stroke="#000000" height="20" width="20" y="200" x="230" stroke-width="0" fill="#026164"/>
  <rect stroke="#000000" height="20" width="20" y="200" x="255" stroke-width="0" fill="#026164"/>
  <rect stroke="#000000" height="20" width="20" y="200" x="280" stroke-width="0" fill="#026164"/>
  <rect stroke="#000000" height="20" width="20" y="200" x="305" stroke-width="0" fill="#026164"/>
  <rect stroke="#000000" height="20" width="20" y="200" x="330" stroke-width="0" fill="#026164"/>
  <rect stroke="#000000" height="20" width="20" y="200" x="355" stroke-width="0" fill="#026164"/>
  <rect stroke="#000000" height="20" width="20" y="200" x="380" stroke-width="0" fill="#026164"/>
  <rect stroke="#000000" height="20" width="20" y="200" x="405" stroke-width="0" fill="#026164"/>
  <rect stroke="#000000" height="20" width="20" y="200" x="430" stroke-width="0" fill="#026164"/>
  <rect stroke="#000000" height="20" width="20" y="200" x="455" stroke-width="0" fill="#026164"/>
  <rect stroke="#000000" height="20" width="20" y="200" x="480" stroke-width="0" fill="#026164"/>
  <rect stroke="#000000" height="20" width="20" y="200" x="505" stroke-width="0" fill="#026164"/>
  <rect stroke="#000000" height="20" width="20" y="200" x="530" stroke-width="0" fill="#026164"/>
  <rect stroke="#000000" height="20" width="20" y="200" x="555" stroke-width="0" fill="#026164"/>
  <rect stroke="#000000" height="20" width="20" y="200" x="580" stroke-width="0" fill="#026164"/>
  <rect stroke="#000000" height="20" width="20" y="200" x="605" stroke-width="0" fill="#026164"/>

  <!-- ROW 10 -->
  <rect stroke="#000000" height="20" width="20" y="225" x="5" stroke-width="0" fill="#026164"/>
  <rect stroke="#000000" height="20" width="20" y="225" x="30" stroke-width="0" fill="#026164"/>
  <rect stroke="#000000" height="20" width="20" y="225" x="55" stroke-width="0" fill="#026164"/>
  <rect stroke="#000000" height="20" width="20" y="225" x="80" stroke-width="0" fill="#026164"/>
  <rect stroke="#000000" height="20" width="20" y="225" x="105" stroke-width="0" fill="#026164"/>
  <rect stroke="#000000" height="20" width="20" y="225" x="130" stroke-width="0" fill="#026164"/>
  <rect stroke="#000000" height="20" width="20" y="225" x="155" stroke-width="0" fill="#026164"/>
  <rect stroke="#000000" height="20" width="20" y="225" x="180" stroke-width="0" fill="#026164"/>
  <rect stroke="#000000" height="20" width="20" y="225" x="205" stroke-width="0" fill="#026164"/>
  <rect stroke="#000000" height="20" width="20" y="225" x="230" stroke-width="0" fill="#026164"/>
  <rect stroke="#000000" height="20" width="20" y="225" x="255" stroke-width="0" fill="#026164"/>
  <rect stroke="#000000" height="20" width="20" y="225" x="280" stroke-width="0" fill="#026164"/>
  <rect stroke="#000000" height="20" width="20" y="225" x="305" stroke-width="0" fill="#026164"/>
  <rect stroke="#000000" height="20" width="20" y="225" x="330" stroke-width="0" fill="#026164"/>
  <rect stroke="#000000" height="20" width="20" y="225" x="355" stroke-width="0" fill="#026164"/>
  <rect stroke="#000000" height="20" width="20" y="225" x="380" stroke-width="0" fill="#026164"/>
  <rect stroke="#000000" height="20" width="20" y="225" x="405" stroke-width="0" fill="#026164"/>
  <rect stroke="#000000" height="20" width="20" y="225" x="430" stroke-width="0" fill="#026164"/>
  <rect stroke="#000000" height="20" width="20" y="225" x="455" stroke-width="0" fill="#026164"/>
  <rect stroke="#000000" height="20" width="20" y="225" x="480" stroke-width="0" fill="#026164"/>
  <rect stroke="#000000" height="20" width="20" y="225" x="505" stroke-width="0" fill="#026164"/>
  <rect stroke="#000000" height="20" width="20" y="225" x="530" stroke-width="0" fill="#026164"/>
  <rect stroke="#000000" height="20" width="20" y="225" x="555" stroke-width="0" fill="#026164"/>
  <rect stroke="#000000" height="20" width="20" y="225" x="580" stroke-width="0" fill="#026164"/>
  <rect stroke="#000000" height="20" width="20" y="225" x="605" stroke-width="0" fill="#026164"/>
 </g>
</svg>