<?xml version="1.0"?>
<svg width="625" height="50" xmlns="http://www.w3.org/2000/svg" xmlns:svg="http://www.w3.org/2000/svg">
 <!-- Created with SVG-edit - http://svg-edit.googlecode.com/ -->
 <!--base color: rgb(2, 97, 100) or #026164 -->
 <g>
  <title>Layer 1</title>
  <!-- ROW 1 -->
  <rect stroke="#000000" height="20" width="20" y="0" x="5" stroke-width="0" fill="#026164"/>
  <rect stroke="#000000" height="20" width="20" y="0" x="30" stroke-width="0" fill="#026164"/>
  <rect stroke="#000000" height="20" width="20" y="0" x="55" stroke-width="0" fill="#026164"/>
  <rect stroke="#000000" height="20" width="20" y="0" x="80" stroke-width="0" fill="#026164"/>
  <rect stroke="#000000" height="20" width="20" y="0" x="105" stroke-width="0" fill="#026164"/>
  <rect stroke="#000000" height="20" width="20" y="0" x="130" stroke-width="0" fill="#026164"/>
  <rect stroke="#000000" height="20" width="20" y="0" x="155" stroke-width="0" fill="#026164"/>
  <rect stroke="#000000" height="20" width="20" y="0" x="180" stroke-width="0" fill="#026164"/>
  <rect stroke="#000000" height="20" width="20" y="0" x="205" stroke-width="0" fill="#026164"/>
  <rect stroke="#000000" height="20" width="20" y="0" x="230" stroke-width="0" fill="#026164"/>
  <rect stroke="#000000" height="20" width="20" y="0" x="255" stroke-width="0" fill="#026164"/>
  <rect stroke="#000000" height="20" width="20" y="0" x="280" stroke-width="0" fill="#026164"/>
  <rect stroke="#000000" height="20" width="20" y="0" x="305" stroke-width="0" fill="#026164"/>
  <rect stroke="#000000" height="20" width="20" y="0" x="330" stroke-width="0" fill="#026164"/>
  <rect stroke="#000000" height="20" width="20" y="0" x="355" stroke-width="0" fill="#026164"/>
  <rect stroke="#000000" height="20" width="20" y="0" x="380" stroke-width="0" fill="#026164"/>
  <rect stroke="#000000" height="20" width="20" y="0" x="405" stroke-width="0" fill="#026164"/>
  <rect stroke="#000000" height="20" width="20" y="0" x="430" stroke-width="0" fill="#026164"/>
  <rect stroke="#000000" height="20" width="20" y="0" x="455" stroke-width="0" fill="#026164"/>
  <rect stroke="#000000" height="20" width="20" y="0" x="480" stroke-width="0" fill="#026164"/>
  <rect stroke="#000000" height="20" width="20" y="0" x="505" stroke-width="0" fill="#026164"/>
  <rect stroke="#000000" height="20" width="20" y="0" x="530" stroke-width="0" fill="#026164"/>
  <rect stroke="#000000" height="20" width="20" y="0" x="555" stroke-width="0" fill="#026164"/>
  <rect stroke="#000000" height="20" width="20" y="0" x="580" stroke-width="0" fill="#026164"/>
  <rect stroke="#000000" height="20" width="20" y="0" x="605" stroke-width="0" fill="#026164"/>
  <!-- ROW 2 -->
  <rect stroke="#000000" height="20" width="20" y="25" x="5" stroke-width="0" fill="#026164"/>
  <rect stroke="#000000" height="20" width="20" y="25" x="30" stroke-width="0" fill="#026164"/>
  <rect stroke="#000000" height="20" width="20" y="25" x="55" stroke-width="0" fill="#026164"/>
  <rect stroke="#000000" height="20" width="20" y="25" x="80" stroke-width="0" fill="#026164"/>
  <rect stroke="#000000" height="20" width="20" y="25" x="105" stroke-width="0" fill="#026164"/>
  <rect stroke="#000000" height="20" width="20" y="25" x="130" stroke-width="0" fill="#026164"/>
  <rect stroke="#000000" height="20" width="20" y="25" x="155" stroke-width="0" fill="#026164"/>
  <rect stroke="#000000" height="20" width="20" y="25" x="180" stroke-width="0" fill="#026164"/>
  <rect stroke="#000000" height="20" width="20" y="25" x="205" stroke-width="0" fill="#026164"/>
  <rect stroke="#000000" height="20" width="20" y="25" x="230" stroke-width="0" fill="#026164"/>
  <rect stroke="#000000" height="20" width="20" y="25" x="255" stroke-width="0" fill="#026164"/>
  <rect stroke="#000000" height="20" width="20" y="25" x="280" stroke-width="0" fill="#026164"/>
  <rect stroke="#000000" height="20" width="20" y="25" x="305" stroke-width="0" fill="#026164"/>
  <rect stroke="#000000" height="20" width="20" y="25" x="330" stroke-width="0" fill="#026164"/>
  <rect stroke="#000000" height="20" width="20" y="25" x="355" stroke-width="0" fill="#026164"/>
  <rect stroke="#000000" height="20" width="20" y="25" x="380" stroke-width="0" fill="#026164"/>
  <rect stroke="#000000" height="20" width="20" y="25" x="405" stroke-width="0" fill="#026164"/>
  <rect stroke="#000000" height="20" width="20" y="25" x="430" stroke-width="0" fill="#026164"/>
  <rect stroke="#000000" height="20" width="20" y="25" x="455" stroke-width="0" fill="#026164"/>
  <rect stroke="#000000" height="20" width="20" y="25" x="480" stroke-width="0" fill="#026164"/>
  <rect stroke="#000000" height="20" width="20" y="25" x="505" stroke-width="0" fill="#026164"/>
  <rect stroke="#000000" height="20" width="20" y="25" x="530" stroke-width="0" fill="#026164"/>
  <rect stroke="#000000" height="20" width="20" y="25" x="555" stroke-width="0" fill="#026164"/>
  <rect stroke="#000000" height="20" width="20" y="25" x="580" stroke-width="0" fill="#026164"/>
  <rect stroke="#000000" height="20" width="20" y="25" x="605" stroke-width="0" fill="#026164"/>
 </g>
</svg>