<?xml version="1.0" encoding="utf-8"?>
<!-- Generator: Adobe Illustrator 16.0.0, SVG Export Plug-In . SVG Version: 6.00 Build 0)  -->
<!DOCTYPE svg PUBLIC "-//W3C//DTD SVG 1.1//EN" "http://www.w3.org/Graphics/SVG/1.1/DTD/svg11.dtd">
<svg version="1.1" id="Layer_1" xmlns="http://www.w3.org/2000/svg" xmlns:xlink="http://www.w3.org/1999/xlink" x="0px" y="0px"
	 width="1024px" height="768px" viewBox="0 0 1024 768" enable-background="new 0 0 1024 768" xml:space="preserve">
<path fill="#026164" d="M662.28,460.6l1.72-0.1h269l1.27-0.67l80.051,136.479l-0.32,0.19H665l-0.93-0.22
	c-108.95,0-197.271-88.32-197.271-197.271c0-108.95,88.32-197.27,197.271-197.27l0.93-0.24h119l0.35,0.56l80.221,136.78L864,339.5
	H664l-0.16,0.21c-33.39,0-60.45,27.06-60.45,60.45C603.39,433.03,629.61,459.77,662.28,460.6z"/>
<path fill="#026164" d="M391.76,554.94h-0.51l-71.87-0.351l-72.41,71.72l-0.06-0.06l-236.77-1.14l457.55-453.18v-0.63l121.8,0.59
	l-0.84,37.18c-33.25,13.04-62.83,34.86-85.19,62.7c-27.57,34.32-43.47,77.18-44.99,121.18c-1.48,42.88,10.61,85.649,34.51,121.3
	c23.02,34.33,56.39,61.36,94.81,76.62l-0.21,0.51l-0.05,10l-0.13,27.5l-195.99-0.939h-0.01L391.76,554.94z"/>
<line fill="none" stroke="#006666" stroke-width="0.9975" stroke-miterlimit="10" x1="587.53" y1="601.38" x2="587.58" y2="591.38"/>
<polyline fill="none" stroke="#006666" stroke-width="0.9975" stroke-miterlimit="10" points="9.75,625.5 10.14,625.11 
	467.69,171.93 "/>
<polyline fill="none" stroke="#006666" stroke-width="0.9975" stroke-miterlimit="10" points="467.1,171.3 467.69,171.3 
	589.49,171.89 590.09,171.89 "/>
<polyline fill="none" stroke="#006666" stroke-width="0.9975" stroke-miterlimit="10" points="9.91,625.11 10.14,625.11 
	246.91,626.25 "/>
<polyline fill="none" stroke="#006666" stroke-width="0.9975" stroke-miterlimit="10" points="587.41,628.88 587.4,628.88 
	391.41,627.94 "/>
<polyline fill="none" stroke="#006666" stroke-width="0.9975" stroke-miterlimit="10" points="246.68,626.6 246.97,626.31 
	319.38,554.59 319.89,554.09 "/>
<polyline fill="none" stroke="#006666" stroke-width="0.9975" stroke-miterlimit="10" points="391.4,628.44 391.4,627.94 
	391.76,554.94 391.76,554.44 "/>
<polyline fill="none" stroke="#006666" stroke-width="0.9975" stroke-miterlimit="10" points="391.25,554.94 319.38,554.59 
	319.25,554.59 "/>
<polyline fill="none" stroke="#006666" stroke-width="0.9975" stroke-miterlimit="10" points="587.4,629.38 587.4,628.88 
	587.53,601.38 "/>
<path fill="none" stroke="#006666" stroke-width="0.9975" stroke-miterlimit="10" d="M588.48,591.15
	c-0.23-0.091-0.461-0.181-0.69-0.28c-38.42-15.26-71.79-42.29-94.81-76.62c-23.9-35.65-35.99-78.42-34.51-121.3
	c1.52-44,17.42-86.86,44.99-121.18c22.36-27.84,51.94-49.66,85.19-62.7"/>
<line fill="none" stroke="#006666" stroke-width="0.9975" stroke-miterlimit="10" x1="588.65" y1="209.07" x2="589.49" y2="171.89"/>
<path fill="none" stroke="#026164" stroke-miterlimit="10" d="M664.07,596.28c-108.95,0-197.271-88.32-197.271-197.271
	c0-108.95,88.32-197.27,197.271-197.27"/>
<line fill="none" stroke="#026164" stroke-miterlimit="10" x1="665" y1="201.5" x2="784" y2="201.5"/>
<line fill="none" stroke="#026164" stroke-miterlimit="10" x1="665" y1="596.5" x2="1014" y2="596.5"/>
<path fill="none" stroke="#026164" stroke-miterlimit="10" d="M663.84,339.71c-33.39,0-60.45,27.06-60.45,60.45
	c0,32.87,26.221,59.609,58.891,60.439c0.52,0.011,1.04,0.021,1.56,0.021"/>
<line fill="none" stroke="#026164" stroke-miterlimit="10" x1="664" y1="339.5" x2="864" y2="339.5"/>
<line fill="none" stroke="#026164" stroke-miterlimit="10" x1="664" y1="460.5" x2="933" y2="460.5"/>
<line fill="none" stroke="#026164" stroke-miterlimit="10" x1="784.35" y1="202.06" x2="864.57" y2="338.84"/>
<polyline fill="none" stroke="#026164" stroke-miterlimit="10" points="934.27,459.83 1014.32,596.31 1014.49,596.6 "/>
</svg>
