<?xml version="1.0" ?><!DOCTYPE svg  PUBLIC '-//W3C//DTD SVG 1.1//EN'  'http://www.w3.org/Graphics/SVG/1.1/DTD/svg11.dtd'><svg enable-background="new 0 0 24 24" height="24px" id="Layer_1" version="1.1" viewBox="0 0 24 24" width="24px" xml:space="preserve" xmlns="http://www.w3.org/2000/svg" xmlns:xlink="http://www.w3.org/1999/xlink"><path d="M24,24l-0.8-3.4L18,12c2.4-1.8,4-5,4-8h-1c0,3-1.4,5.5-3.5,7.1L13.7,5C13.9,4.7,14,4.3,14,4c0-0.7-1-1.4-1-1.7V1  c0-0.6-0.4-1-1-1s-1,0.4-1,1v1.3c-1,0.3-1,1-1,1.7c0,0.4,0.1,0.7,0.3,1L0.8,20.6L0,24l2.6-2.3L7.7,13c1.3,0.6,2.7,1,4.3,1  c1.5,0,3-0.4,4.3-1l5.2,8.6L24,24z M12,3c0.6,0,1,0.4,1,1s-0.4,1-1,1s-1-0.4-1-1S11.4,3,12,3z M12,13c-1.3,0-2.6-0.3-3.7-0.8L12,6  c0,0,0,0,0,0s0,0,0,0l3.7,6.2C14.6,12.7,13.3,13,12,13z"/></svg>